<?xml version="1.0" encoding="utf-8" ?><svg xmlns="http://www.w3.org/2000/svg" width="16" height="16" viewBox="262 76 500 871"><!-- Backplate: slightly expanded rounded convex hull --><path fill="#211916" d="M535,101 L725,189 Q748,200 748,225 L748,745 Q748,770 727,784 L533,919 Q512,933 491,919 L297,784 Q276,770 276,745 L276,225 Q276,200 299,189 L489,101 Q512,90 535,101 Z"/><!-- Icon paths (identical to dark) --><path fill="#F9961F" d="M512.162 139.897C517.977 141.836 531.303 149.775 537.172 152.84L595.99 183.701L647.669 210.626C697.021 235.732 697.779 233.773 697.692 290.034L697.69 341.597C698.097 394.398 698.083 447.201 697.648 500.001L538.89 500.023L538.872 401.949L538.833 371.969C538.741 350.983 539.251 329.861 511.65 328.368C511.351 319.945 511.577 311.21 511.363 302.752C511.036 289.835 510.79 277.506 511.539 264.582C515.121 265.71 532.959 275.078 537.54 277.652C549.986 284.645 566.257 292.03 578.09 299.368C580.889 301.088 583.476 303.132 585.797 305.457C593.979 313.745 593.229 326.233 593.204 336.9L593.118 363.134L593.016 445.497C609.54 445.37 626.064 445.421 642.586 445.65L642.397 361.749L642.399 327.998C642.438 286.403 644.831 274.197 603.962 254.393C573.253 239.512 542.095 221.975 511.403 206.736C513.03 184.892 510.906 161.454 512.162 139.897Z"/><path fill="#FAC750" d="M538.416 524.306C591.354 523.944 645.111 524.629 697.826 523.902C697.357 542.138 697.747 561.73 697.71 580.083L697.6 697.509L697.689 736.5C697.834 754.568 699.943 776.059 685.791 790.607C682.124 794.378 676.909 797.543 672.443 800.258C647.493 813.695 619.279 828.334 594.367 841.066C584.062 846.332 515.589 883.262 512.085 883.082C511.424 861.643 512.114 837.931 511.843 816.093C517.584 813.433 525.031 809.126 530.838 806.117C545.364 798.682 559.842 791.154 574.272 783.534C586.598 777.12 600.395 770.082 612.828 763.929C646.511 747.262 642.515 724.58 642.498 691.826L642.121 614.318C642.102 604.588 641.528 587.281 642.3 578.175L642.358 577.554C626.055 577.456 609.752 577.448 593.449 577.53C594.05 617.442 593.069 657.777 593.406 697.697C593.686 710.269 582.208 720.337 571.636 725.486C552.115 734.994 531.766 747.547 511.952 756.196L511.85 700.35C511.941 699.534 511.875 697.905 511.868 697.017C511.843 695.01 511.481 693.804 512.397 692.306C515.302 691.276 517.868 691.254 520.714 690.453C540.402 684.913 538.613 664.417 538.561 649.03L538.45 619.181L538.416 524.306Z"/><path fill="#43AA8B" d="M326.688 523.989L381.375 524.028C380.907 538.806 381.104 554.821 381.079 569.653L381.285 652.71C381.362 664.484 381.383 676.253 381.358 688.021C381.327 703.119 379.698 722.258 384.322 736.704C386.382 742.959 390.138 748.518 395.173 752.763C404.278 760.579 424.198 770.321 435.417 776.132L487.647 803.23C491.679 805.36 510.187 814.473 511.165 817.366C509.908 831.308 511.652 850.939 511.148 865.43C510.964 870.716 511.47 877.865 510.777 883.055C506.362 881.832 494.481 875.043 490.114 872.689C482.933 868.885 475.721 865.137 468.481 861.446L400.048 826.076C385.146 818.436 370.036 810.89 355.395 802.858C346.977 798.24 335.284 790.141 331.137 781.285C325.1 768.39 326.517 751.194 326.572 737.258L326.614 690.612C326.494 635.727 325.908 578.798 326.688 523.989Z"/><path fill="#FA4244" d="M512.162 139.897C510.906 161.454 513.03 184.892 511.403 206.736C506.698 208.963 499.397 213.352 494.414 216.015C483.465 221.835 472.467 227.56 461.419 233.19L431.351 248.605C418.015 255.304 403.616 261.563 392.778 272.056C378.434 285.943 380.812 305.673 380.941 323.971C381.024 337.118 381.039 350.266 380.987 363.414L380.976 455.059C380.961 469.811 380.62 485.302 380.872 499.961L346.516 499.655C341.077 499.615 332.124 499.338 327.026 499.859C325.894 438.284 328.095 376.298 327.35 314.652C327.099 293.835 324.857 266.869 329.521 246.84C333.161 231.212 354.171 221.841 367.355 214.941L404.436 195.667C440.196 176.79 476.106 158.2 512.162 139.897Z"/><path fill="#FA4244" d="M430.151 499.909C429.684 489.08 429.995 476.191 429.994 465.235L430 405.428L430.166 361.174C430.182 349.854 429.289 326.585 432.446 316.178C433.971 311.146 436.882 306.646 440.846 303.193C448.288 296.691 466.527 288.096 476.073 283.239C488.007 277.236 499.831 271.016 511.539 264.582C510.79 277.506 511.036 289.835 511.363 302.752C511.577 311.21 511.351 319.945 511.65 328.368C501.285 328.835 488.497 337.93 487.181 347.869C485.079 363.747 485.984 383.172 485.98 399.215L486.044 500.002L430.151 499.909Z"/><path fill="#43AA8B" d="M429.975 523.88C447.831 524.43 467.984 523.946 485.944 523.729L486.004 617.501C486.015 633.675 485.922 649.841 486.19 666.026C486.353 675.861 490.014 682.682 498.836 687.663C502.006 689.452 508.303 690.908 510.641 693.326C511.031 695.131 510.999 695.327 511.868 697.017C511.875 697.905 511.941 699.534 511.85 700.35C511.616 703.301 511.579 706.783 511.621 709.763C511.837 725.192 511.078 740.847 511.396 756.255C506.554 753.433 501.186 750.857 496.123 748.418C479.935 740.621 464.223 731.999 448.366 723.566C445.432 722.005 441.814 720.086 439.455 717.741C428.822 707.168 430.294 690.891 430.312 677.293L430.335 643.751L429.975 523.88Z"/><path fill="#43AA8B" fill-opacity="0.62352943" d="M511.165 817.366L511.843 816.093C512.114 837.931 511.424 861.643 512.085 883.082L510.777 883.055C511.47 877.865 510.964 870.716 511.148 865.43C511.652 850.939 509.908 831.308 511.165 817.366Z"/></svg>
